<?xml version="1.0" encoding="UTF-8"?>
<svg version="1.1" xmlns="http://www.w3.org/2000/svg" width="48" height="48">
<path d="M0 0 C4.10586276 3.06601669 6.47073513 6.68564288 8.09765625 11.56640625 C9.09530591 23.81623571 9.09530591 23.81623571 6.59765625 28.31640625 C3.66912927 30.95208053 1.91769217 31.46167413 -1.9375 31.69140625 C-4.52692797 31.52667127 -6.57046387 30.66376149 -8.90234375 29.56640625 C-9.89234375 30.06140625 -9.89234375 30.06140625 -10.90234375 30.56640625 C-15.53447868 31.1215344 -18.88406502 31.20283045 -22.90234375 28.69140625 C-25.67627685 25.74410233 -26.05705178 24.13955922 -26.08984375 20.19140625 C-26.10402344 19.42054687 -26.11820313 18.6496875 -26.1328125 17.85546875 C-25.875273 15.29753402 -25.25369136 13.74254189 -23.90234375 11.56640625 C-18.7875034 7.55747732 -13.63138666 8.60801588 -7.53515625 9.2421875 C-6.66632812 9.34917969 -5.7975 9.45617188 -4.90234375 9.56640625 C-4.84175781 10.48164063 -4.78117187 11.396875 -4.71875 12.33984375 C-4.63496094 13.52835938 -4.55117188 14.716875 -4.46484375 15.94140625 C-4.38363281 17.12476562 -4.30242188 18.308125 -4.21875 19.52734375 C-4.09149439 22.48159526 -4.09149439 22.48159526 -2.90234375 24.56640625 C-1.91234375 24.56640625 -0.92234375 24.56640625 0.09765625 24.56640625 C2.0821152 20.59748834 1.7732812 15.69503183 0.44921875 11.5234375 C-1.214015 8.18986216 -2.92234656 6.55424768 -6.08984375 4.62890625 C-12.25660698 2.91030011 -17.34908025 2.57802951 -23.27734375 5.25390625 C-26.67422234 7.19883872 -28.48409435 8.81221666 -29.90234375 12.56640625 C-31.47714835 18.92762483 -31.25947439 24.81926539 -27.90234375 30.56640625 C-24.54705046 34.33452358 -21.24834843 35.45652832 -16.265625 35.86328125 C-12.79514054 35.87731759 -9.36532549 35.78527448 -5.90234375 35.56640625 C-5.24234375 37.21640625 -4.58234375 38.86640625 -3.90234375 40.56640625 C-9.31091428 43.91329395 -15.79131524 43.11386681 -21.90234375 42.56640625 C-27.84265721 40.94548351 -31.4233869 37.63574337 -34.90234375 32.56640625 C-38.56372898 26.12741843 -38.98795266 19.46426969 -37.3984375 12.29296875 C-35.30254397 6.04121777 -31.81827033 1.29022494 -25.90234375 -1.80859375 C-17.19646021 -5.24169591 -8.09187184 -4.61828783 0 0 Z M-18.65234375 15.75390625 C-20.32238315 18.17546338 -20.27196788 19.68333807 -19.90234375 22.56640625 C-18.00479231 24.91614443 -18.00479231 24.91614443 -14.77734375 24.69140625 C-13.82859375 24.65015625 -12.87984375 24.60890625 -11.90234375 24.56640625 C-10.59719639 22.34864003 -10.59719639 22.34864003 -9.90234375 19.56640625 C-10.87712182 16.69138372 -10.87712182 16.69138372 -12.90234375 14.56640625 C-16.70317082 14.19207197 -16.70317082 14.19207197 -18.65234375 15.75390625 Z " fill="#3A81F5" transform="translate(38.90234375,4.43359375)"/>
</svg>
